<svg xmlns="http://www.w3.org/2000/svg" xmlns:xlink="http://www.w3.org/1999/xlink" xmlns:inkscape="http://www.inkscape.org/namespaces/inkscape" version="1.1" width="612" height="792" viewBox="0 0 612 792">
<defs>
<clipPath id="clip_1">
<path transform="matrix(.24,0,0,.24,0,0)" d="M0 0H2550V3300H0Z" clip-rule="evenodd"/>
</clipPath>
<clipPath id="clip_2">
<path transform="matrix(.24,0,0,.24,0,0)" d="M0 0H2550V2250.0003H0Z" clip-rule="evenodd"/>
</clipPath>
</defs>
<g clip-path="url(#clip_1)">
<path transform="matrix(.5,0,0,.5,0,0)" d="M0 0H1440V1080H0Z" fill="#f3ece2"/>
</g>
<g clip-path="url(#clip_2)">
<text fill="#c4650b" xml:space="preserve" transform="matrix(.5 0 0 .5 0 0)" font-size="16" font-family="Type3 (4 0 R)"><tspan y="73" x="64 78.128009 87.728 97.32799 106.92798 115.64798 131.32799 144.928">4 &#x00b7; IDEE</tspan></text>
<text fill="#1c1613" xml:space="preserve" transform="matrix(.5 0 0 .5 0 0)" font-size="62" font-family="Type3 (5 0 R)"><tspan y="148" x="64 98.65788 131.33177 149.00171 164.50167 201.54654 219.21648 246.0934 267.11134 299.78523 315.28517 352.33003 384.7559 400.25587 434.51075 466.9366 486.43559 522.08547 543.4133 575.83926 602.15817">Sei piste da valutare</tspan></text>
<text fill="#5a5148" xml:space="preserve" transform="matrix(.5 0 0 .5 0 0)" font-size="19" font-family="Type3 (6 0 R)"><tspan y="92" x="1031.0469 1041.0029 1050.693 1055.1011 1060.801 1074.937 1085.3871 1095.9891 1100.3972 1106.0972 1116.6992 1121.1072 1126.8071 1132.1841 1140.9811 1147.0991 1152.7991 1163.4011 1172.9961 1179.1141 1187.9111 1193.7442 1203.4342 1209.1343 1213.5422 1217.5322 1223.2322">Sei modi di far durare il c</tspan></text>
<text fill="#5a5148" xml:space="preserve" transform="matrix(.5 0 0 .5 0 0)" font-size="19" font-family="Type3 (6 0 R)"><tspan y="120" x="993.5156 1004.1177 1008.5257 1017.6837 1027.3738 1041.5098 1052.1118 1057.9448 1067.6349 1073.335 1079.0349 1089.637 1095.755 1100.1631 1114.2991 1123.0961 1128.7962 1139.3982 1143.8062 1149.5061 1158.6641 1169.1141 1183.2503 1193.8523 1199.9703 1208.7673 1214.8854 1218.8754">dicembre: prima di comprarlo</tspan></text>
<path transform="matrix(.5,0,0,.5,0,0)" d="M64 191H487V556H64Z" fill="#ffffff"/>
<path transform="matrix(.5,0,0,.5,0,0)" d="M64 191H487V195H64Z" fill="#e42313"/>
<text fill="#e42313" xml:space="preserve" transform="matrix(.5 0 0 .5 0 0)" font-size="30" font-family="Type3 (7 0 R)"><tspan y="250" x="92 110.58513">01</tspan></text>
<text fill="#1c1613" xml:space="preserve" transform="matrix(.5 0 0 .5 0 0)" font-size="27" font-family="Type3 (8 0 R)"><tspan y="295" x="92 98.61499 104.82498 112.92497 125.83095 138.81792 145.02791 158.93288 173.10785 188.49782 201.48479 210.74578 217.76576 232.50774 240.60773 254.5127 262.61268 276.78767 290.96266 299.06263 311.9686 324.95558 331.43556 344.42253 350.6325 365.3745 380.76448">Il calendario &#x00e8; un catalogo</tspan></text>
<text fill="#5a5148" xml:space="preserve" transform="matrix(.5 0 0 .5 0 0)" font-size="18" font-family="Type3 (9 0 R)"><tspan y="368" x="92 95.94197 99.721958 105.12192 119.19783 128.61177 134.01174 144.05567 148.23165 153.6316 163.53154 173.57547 182.66542 186.8414 192.24137 200.91732 209.25127 216.50522 225.68517 229.46515 233.24514 241.57909 246.97905 257.02299 266.9229 272.71888 276.67884 285.0128 290.41276 298.7467 302.52668 306.30665 314.6406 320.04057 330.08448 339.9844 343.9444 347.90437 352.08033 362.12428 365.90425 370.08024 378.41419 383.81416 387.9901 397.08009 401.04005 410.22 416.01597 424.3499">Il QR di ogni casella porta alla bottiglia intera,</tspan></text>
<text fill="#5a5148" xml:space="preserve" transform="matrix(.5 0 0 .5 0 0)" font-size="18" font-family="Type3 (9 0 R)"><tspan y="396" x="92 100.333957 109.0099 119.05383 128.14379 132.31977 139.57372 143.53369 151.86765 161.91158 166.08756 169.86754 179.04749 184.44745 191.7014 200.79135 210.83528 215.01126 218.97124 227.97118 233.08315 238.48311 248.49103 257.67097 266.76094 270.7209 274.89686 284.9408 294.03077 302.36473 306.3247 310.28468 315.8106 325.71055 331.1105 338.36445 347.54438 353.0703 362.25025 367.6502 377.69416 381.87013 387.27009 395.60408 402.858 410.11195 418.44593 428.48985 438.53376 442.70976">acquistabile subito. Ventiquattro sere di assaggio</tspan></text>
<text fill="#5a5148" xml:space="preserve" transform="matrix(.5 0 0 .5 0 0)" font-size="18" font-family="Type3 (9 0 R)"><tspan y="424" x="92 102.04393 106.21991 113.72586 122.90581 131.99576 135.95574 144.28969 153.37964 163.27957 168.67954 176.18549 185.36544 194.45539 198.41536 202.59134 212.63527 221.72522 230.05918 234.01915 237.97913 243.50508 253.40502 258.805 268.70494 277.38087 286.05683 294.39079 301.6447 305.82069 315.7206 324.81056 328.9865 334.38648 344.43043 348.6064 354.00639 361.5123 370.69227 379.7822 389.82615 394.0021 397.9621 406.29606">diventano ventiquattro occasioni di vendita.</tspan></text>
<text fill="#6f6859" xml:space="preserve" transform="matrix(.5 0 0 .5 0 0)" font-size="16" font-family="Type3 (10 0 R)"><tspan y="522" x="92 104.80002 115.84003 130.48004 143.60005 149.76006 157.84006 170.64008 177.68007 184.72006 191.76006 202.80007 208.40006 221.60007 236.48009 251.6801 266.88014 277.92015 289.12016 302.32017">VENDITA &#x00b7; E-COMMERCE</tspan></text>
<path transform="matrix(.5,0,0,.5,0,0)" d="M509 191H931V556H509Z" fill="#ffffff"/>
<path transform="matrix(.5,0,0,.5,0,0)" d="M509 191H931V195H509Z" fill="#f08019"/>
<text fill="#c4650b" xml:space="preserve" transform="matrix(.5 0 0 .5 0 0)" font-size="30" font-family="Type3 (11 0 R)"><tspan y="250" x="536.65628 555.2414">02</tspan></text>
<text fill="#1c1613" xml:space="preserve" transform="matrix(.5 0 0 .5 0 0)" font-size="27" font-family="Type3 (8 0 R)"><tspan y="295" x="536.65628 548.8062 561.7932 569.8932 582.7992 595.78616 606.6671 620.5721 626.7821 632.99209 645.979 654.079 669.44198">La casella 25</tspan></text>
<text fill="#5a5148" xml:space="preserve" transform="matrix(.5 0 0 .5 0 0)" font-size="18" font-family="Type3 (9 0 R)"><tspan y="368" x="536.65628 547.5642 556.6542 564.98818 570.3881 579.0641 587.3981 594.65206 603.832 607.61196 611.3919 619.7258 625.1258 629.30178 638.3917 643.7917 653.83566 658.0116 667.10159 672.4115 677.81149 687.7114 691.4914 695.45138 700.9773 710.1572 715.5572 719.33718 728.5171 733.91708 743.763 754.04098 759.4409 764.8409 773.93087 783.8308 792.9208 798.32077 806.9967 816.8966 825.9866 829.94656 834.1225 843.3025 852.39248 861.5724 866.97238 874.7483 878.92428 888.0142">Una casella in pi&#x00f9;, oltre le 24: non contiene vino</tspan></text>
<text fill="#5a5148" xml:space="preserve" transform="matrix(.5 0 0 .5 0 0)" font-size="18" font-family="Type3 (9 0 R)"><tspan y="396" x="536.65628 550.04818 558.3821 563.78207 572.872 581.962 587.36196 591.5379 600.53787 608.3138 612.48977 616.4497 625.44967 630.56167 635.9616 646.8695 655.9595 664.29348 669.6934 679.73739 688.9173 698.96127 708.0512 715.3052 719.26516 727.5991 735.6631 739.83908 749.739 758.829 768.0089 773.4089 783.4528 792.5428 796.71878 806.7627 815.0966 819.05667 827.3906 832.70059 838.1005 847.1904 856.2804">ma un invito. Una degustazione guidata, una</tspan></text>
<text fill="#5a5148" xml:space="preserve" transform="matrix(.5 0 0 .5 0 0)" font-size="18" font-family="Type3 (9 0 R)"><tspan y="424" x="536.65628 544.4322 548.60818 555.8621 560.0381 563.99807 572.33206 577.732 581.90798 590.9979 596.3979 605.07388 613.40786 622.4978 626.45779 630.6337 639.7237 648.0576 653.36758 658.7675 667.8575 676.94747 685.2814 690.68136 697.9353 707.11526 712.9112 721.2451 725.2051 733.53909 738.651 744.05099 747.9929 751.7729 757.17288 765.8488 775.7488 780.8428 789.17678 798.2667 807.44668 811.4066 815.3666 825.2665 830.66647 835.7604 839.9364 849.02639 853.2024 860.4563 869.1322 877.4122">visita in cantina, una serata. Il cofanetto finisce,</tspan></text>
<text fill="#5a5148" xml:space="preserve" transform="matrix(.5 0 0 .5 0 0)" font-size="18" font-family="Type3 (9 0 R)"><tspan y="452" x="536.65628 540.4362 544.2162 553.3961 560.6501 570.69406 579.87399 585.6699 589.8459 599.0258 608.1158 616.17977 624.5137 629.91366 639.0036 648.00357">l'esperienza no.</tspan></text>
<text fill="#6f6859" xml:space="preserve" transform="matrix(.5 0 0 .5 0 0)" font-size="16" font-family="Type3 (10 0 R)"><tspan y="522" x="536.65628 547.85629 558.89627 568.57626 579.6162 594.2562 603.9362 610.0962 624.9762 639.6162 646.6562 653.69619 660.73617 671.7761 684.5762 695.6162 710.2562 719.9362">RETENTION &#x00b7; EVENTI</tspan></text>
<path transform="matrix(.5,0,0,.5,0,0)" d="M953 191H1376V556H953Z" fill="#ffffff"/>
<path transform="matrix(.5,0,0,.5,0,0)" d="M953 191H1376V195H953Z" fill="#7a2e8e"/>
<text fill="#7a2e8e" xml:space="preserve" transform="matrix(.5 0 0 .5 0 0)" font-size="30" font-family="Type3 (12 0 R)"><tspan y="250" x="981.3281 999.91329">03</tspan></text>
<text fill="#1c1613" xml:space="preserve" transform="matrix(.5 0 0 .5 0 0)" font-size="27" font-family="Type3 (8 0 R)"><tspan y="295" x="981.3281 987.9431 994.1531 1002.25308 1015.15908 1028.146 1034.356 1048.261 1062.4359 1077.8259 1090.8129 1100.0739 1107.0939 1121.8358 1129.9358 1142.9227 1151.0227 1166.4127 1180.5877">Il calendario a due</tspan></text>
<text fill="#5a5148" xml:space="preserve" transform="matrix(.5 0 0 .5 0 0)" font-size="18" font-family="Type3 (9 0 R)"><tspan y="368" x="981.3281 993.244 1002.334 1011.5139 1016.9139 1030.3058 1034.4818 1044.5258 1053.6157 1063.5156 1072.6056 1078.0056 1088.0496 1097.2295 1103.0254 1108.4253 1117.1012 1125.4352 1132.6891 1141.869 1145.649 1149.4291 1157.7631 1163.073 1168.4729 1178.3728 1188.4168 1198.4607 1207.5507 1213.0767 1222.2566">Due mignon per casella, oppure </tspan></text>
<text fill="#5a5148" xml:space="preserve" transform="matrix(.5 0 0 .5 0 0)" font-size="18" font-family="Type3 (9 0 R)"><tspan y="396" x="981.3281 991.3721 1000.552 1013.9439 1023.12387 1026.9038 1030.6838 1034.8599 1040.2598 1048.5938 1053.9937 1064.0376 1073.1276 1082.3075 1087.7075 1091.8836 1100.9735 1111.0175 1115.1935 1120.9895 1125.1655 1133.7695 1141.8335 1146.0095 1151.4094 1161.4534 1165.6294 1173.1354 1182.3153 1188.1113 1195.3652 1199.5413 1204.6532 1210.0532 1219.4851">gemelli a due indirizzi diversi. St</tspan></text>
<text fill="#5a5148" xml:space="preserve" transform="matrix(.5 0 0 .5 0 0)" font-size="18" font-family="Type3 (9 0 R)"><tspan y="424" x="981.3281 988.5821 992.54208 1001.722 1008.97598 1016.2299 1024.5639 1029.9639 1037.2178 1046.3977 1052.1936 1060.5276 1065.8375 1071.2376 1081.2815 1090.3715 1099.5514 1104.9514 1113.6273 1121.9613 1129.2152 1138.3952 1143.7952 1149.1951 1153.3711 1157.1511 1162.551 1168.077 1177.257 1187.3009 1195.6349 1199.4149 1209.3148 1214.7149 1223.8948">stessa sera, due case: il regalo &#x00e8; </tspan></text>
<text fill="#5a5148" xml:space="preserve" transform="matrix(.5 0 0 .5 0 0)" font-size="18" font-family="Type3 (9 0 R)"><tspan y="452" x="981.3281 991.3721 995.54806 1002.802 1006.76199 1015.09597 1024.1859 1032.2499 1040.5839">distanza.</tspan></text>
<text fill="#6f6859" xml:space="preserve" transform="matrix(.5 0 0 .5 0 0)" font-size="16" font-family="Type3 (10 0 R)"><tspan y="522" x="981.3281 992.52816 1003.5681 1017.72817 1030.5282 1039.4882 1054.3682 1061.4082 1068.4483 1075.4883 1086.4963 1099.6963 1114.5763 1129.2163 1138.8964 1150.0964 1156.2565 1170.8965 1185.7765 1192.8165 1205.9365 1220.8165">REGALO &#x00b7; SCONTRINO DOP</tspan></text>
<path transform="matrix(.5,0,0,.5,0,0)" d="M64 578H487V943H64Z" fill="#ffffff"/>
<path transform="matrix(.5,0,0,.5,0,0)" d="M64 578H487V582H64Z" fill="#f6d01a"/>
<text fill="#9a7d08" xml:space="preserve" transform="matrix(.5 0 0 .5 0 0)" font-size="30" font-family="Type3 (13 0 R)"><tspan y="637" x="92 110.58513">04</tspan></text>
<text fill="#1c1613" xml:space="preserve" transform="matrix(.5 0 0 .5 0 0)" font-size="27" font-family="Type3 (8 0 R)"><tspan y="682" x="92 104.14998 118.05495 126.15494 141.51792 157.25888 165.35887 178.26485 191.25182 200.5128 206.9928">Le 24 carte</tspan></text>
<text fill="#5a5148" xml:space="preserve" transform="matrix(.5 0 0 .5 0 0)" font-size="18" font-family="Type3 (9 0 R)"><tspan y="755" x="92 99.95595 109.135898 114.53586 121.78981 130.46576 139.55571 148.73566 158.77959 167.95954 173.3595 183.40343 192.58338 196.36336 201.76332 211.80725 215.98323 225.88317 231.67913 240.76908 250.669 256.06898 263.32295 273.22288 282.3128 292.21275 297.6127 307.65663 316.83656 322.6325 327.72648 337.6264 343.42237 351.75633 355.71629 364.89625 370.2962 375.69618 382.9501 387.1261 392.52607 399.78 403.74 412.07395 420.7499 429.42585 437.7598 446.84977">Le schede del giorno sono perforate: si staccano</tspan></text>
<text fill="#5a5148" xml:space="preserve" transform="matrix(.5 0 0 .5 0 0)" font-size="18" font-family="Type3 (9 0 R)"><tspan y="783" x="92 101.17995 106.57991 114.913867 120.31383 125.40779 129.58377 138.67372 147.85367 153.25363 163.29756 167.47354 176.14949 185.32944 198.72136 208.76529 214.29125 223.47119 228.87116 233.96512 243.86505 249.66101 263.05293 271.38688 280.4768 290.37675 295.7767 304.86665 313.9566 319.35658 332.74848 341.08244 349.68635 357.4803 367.38026 372.7802 382.82414 387.00013 392.4001 402.246 412.52394 417.9239 426.59986 434.9338 440.72978 444.68977 452.9697">e a fine dicembre formano un mazzo di 24 carte.</tspan></text>
<text fill="#5a5148" xml:space="preserve" transform="matrix(.5 0 0 .5 0 0)" font-size="18" font-family="Type3 (9 0 R)"><tspan y="811" x="92 95.94197 99.721958 105.12192 115.16585 119.34183 127.67578 133.47174 137.64772 147.54766 152.94762 162.99155 172.1715 175.95148 179.73146 188.06542 193.46538 203.50931 212.68926 222.73319 231.82314 239.07709 243.03707 251.37102 259.43498 263.61097 273.5109 282.60084 290.8808 296.19078 301.59074 310.7707 316.17066 319.95063 328.28459 333.68455 340.93849 350.98243 360.16236 367.41633 375.75025 381.1502 391.19416">Il diario della degustazione, e la spesa di</tspan></text>
<text fill="#5a5148" xml:space="preserve" transform="matrix(.5 0 0 .5 0 0)" font-size="18" font-family="Type3 (9 0 R)"><tspan y="839" x="92 102.04393 111.22388 120.31383 129.40378 137.73773 141.91371 150.91365">gennaio.</tspan></text>
<text fill="#6f6859" xml:space="preserve" transform="matrix(.5 0 0 .5 0 0)" font-size="16" font-family="Type3 (10 0 R)"><tspan y="909" x="92 103.00801 114.20802 129.08805 142.20806 156.60808 166.76808 175.64809 190.5281 197.5681 204.6081 211.64809 222.8481 229.0081 242.20812 257.08815 268.28816 281.40815">PRODOTTO &#x00b7; RICORDO</tspan></text>
<path transform="matrix(.5,0,0,.5,0,0)" d="M509 578H931V943H509Z" fill="#ffffff"/>
<path transform="matrix(.5,0,0,.5,0,0)" d="M509 578H931V582H509Z" fill="#e42313"/>
<text fill="#e42313" xml:space="preserve" transform="matrix(.5 0 0 .5 0 0)" font-size="30" font-family="Type3 (7 0 R)"><tspan y="637" x="536.65628 555.2414">05</tspan></text>
<text fill="#1c1613" xml:space="preserve" transform="matrix(.5 0 0 .5 0 0)" font-size="27" font-family="Type3 (8 0 R)"><tspan y="682" x="536.65628 552.3162 566.2212 580.3962 586.87619 593.8961 609.2861 623.46109 636.448 642.928 649.40798 658.2639 673.00588 681.10586 691.9868 705.8918 714.7478 728.6528 736.75277 743.7727 757.9477 766.04769 781.4376 788.45767 797.3136 811.21859 817.69857 824.1786">Ventiquattro sere in diretta</tspan></text>
<text fill="#5a5148" xml:space="preserve" transform="matrix(.5 0 0 .5 0 0)" font-size="18" font-family="Type3 (9 0 R)"><tspan y="755" x="536.65628 550.7682 560.81216 569.9021 574.07809 579.478 586.732 595.9119 601.7079 610.0419 615.44186 624.5318 633.62179 639.0217 652.41366 656.5896 665.26559 670.7915 680.6914 684.4714 692.2473 696.4233 706.4672 715.64718 725.5471 730.9471 738.453 747.63296 753.4289 757.38888 761.5648 770.2408 778.5747 782.3547 791.5346 796.9346 806.9785 811.15457 816.5545 825.6444 834.7344 840.13436 853.52627 857.7023 866.79226 875.8822 879.84219 889.7421">Ogni sera un micro-video verticale di un minuto:</tspan></text>
<text fill="#5a5148" xml:space="preserve" transform="matrix(.5 0 0 .5 0 0)" font-size="18" font-family="Type3 (9 0 R)"><tspan y="783" x="536.65628 543.9102 548.0862 553.48617 561.82009 571.864 577.38998 586.5699 591.96987 595.7498 604.08377 609.4837 618.15969 626.49368 633.7476 642.92758 646.7075 650.4875 658.8214 664.13137 669.5313 673.7073 677.48727 682.8872 692.93118 698.4571 708.35708 718.401 727.49099 731.4509 735.4109 745.3108 750.83676 760.01669 765.4166 775.4606 779.63656 788.3125 797.49246 802.8924 806.8524 812.3784 821.55838 826.9583 835.6343 845.5342 852.78817 861.9681 867.36807 874.622 883.712">si apre la casella, il produttore dice tre cose sul</tspan></text>
<text fill="#5a5148" xml:space="preserve" transform="matrix(.5 0 0 .5 0 0)" font-size="18" font-family="Type3 (9 0 R)"><tspan y="811" x="536.65628 543.9102 553.0002 562.90017 568.3001 576.07608 580.252 589.342 598.3419 603.65188 609.0518 614.14578 618.3217 627.4117 635.69168 640.8036 646.20358 656.2115 665.3914 674.4814 678.44137 682.6173 692.66128 701.7512 710.0852 714.04519 718.0051 723.53109 733.431 738.831 747.92098 755.1749 763.8509 768.02688 771.9868 781.16677 786.5667 796.61068 800.7866 809.15658 814.5565 821.8105 830.48648 836.2824 840.4584 844.41836 848.3783 856.6582">suo vino, fine. Ventiquattro uscite gi&#x00e0; scritte.</tspan></text>
<text fill="#6f6859" xml:space="preserve" transform="matrix(.5 0 0 .5 0 0)" font-size="16" font-family="Type3 (10 0 R)"><tspan y="909" x="536.65628 549.85629 564.73629 579.3763 589.0563 600.0963 614.7363 626.9923 635.8723 650.7523 657.7923 664.8323 671.87228 683.21627 694.78427 701.8242 714.0802 725.0882 738.2882 744.44827 754.12826">CONTENUTO &#x00b7; 24 USCITE</tspan></text>
<path transform="matrix(.5,0,0,.5,0,0)" d="M953 578H1376V943H953Z" fill="#ffffff"/>
<path transform="matrix(.5,0,0,.5,0,0)" d="M953 578H1376V582H953Z" fill="#7a2e8e"/>
<text fill="#7a2e8e" xml:space="preserve" transform="matrix(.5 0 0 .5 0 0)" font-size="30" font-family="Type3 (12 0 R)"><tspan y="637" x="981.3281 999.91329">06</tspan></text>
<text fill="#1c1613" xml:space="preserve" transform="matrix(.5 0 0 .5 0 0)" font-size="27" font-family="Type3 (8 0 R)"><tspan y="682" x="981.3281 996.9881 1010.89309 1020.15408 1031.035 1038.055 1052.797 1066.9719 1080.877 1088.9769 1104.367 1117.3539 1125.4539 1140.8439 1153.8308 1168.0057 1180.9118">Versione da banco</tspan></text>
<text fill="#5a5148" xml:space="preserve" transform="matrix(.5 0 0 .5 0 0)" font-size="18" font-family="Type3 (9 0 R)"><tspan y="755" x="981.3281 989.28408 999.18399 1004.5839 1011.8379 1015.79788 1024.9778 1032.2317 1039.4856 1049.3855 1054.7854 1063.4613 1071.7953 1075.5753 1084.7553 1093.8452 1103.8892 1112.2232 1118.019 1122.1951 1132.095 1137.4949 1147.5388 1156.7188 1162.5147 1167.9146 1177.0945 1186.1845 1196.0844 1200.0443 1209.2243 1217.9002">Lo stesso calendario per enotech</tspan></text>
<text fill="#5a5148" xml:space="preserve" transform="matrix(.5 0 0 .5 0 0)" font-size="18" font-family="Type3 (9 0 R)"><tspan y="783" x="981.3281 990.0041 998.338 1005.592 1014.7719 1018.5519 1022.33187 1030.6658 1036.0657 1046.1096 1055.2896 1059.0696 1064.4695 1074.5134 1078.6895 1088.5894 1094.3853 1103.4752 1113.3751 1118.7752 1127.9551 1133.355 1137.531 1141.311 1146.7109 1155.3869 1163.7208 1167.5009 1171.6769 1180.3528 1189.5327 1194.9326 1204.9766 1214.1565 1217.9365">casella del giorno &#x00e8; il calice del </tspan></text>
<text fill="#5a5148" xml:space="preserve" transform="matrix(.5 0 0 .5 0 0)" font-size="18" font-family="Type3 (9 0 R)"><tspan y="811" x="981.3281 989.6621 993.4421 998.84207 1008.886 1017.22 1026.3099 1034.9859 1044.8858 1050.2857 1058.9616 1068.8615 1077.9514 1083.3513 1087.1314 1095.4653 1100.8652 1108.1192 1117.2091 1125.5431 1130.9431 1138.197 1146.8729 1155.9629 1165.1428 1175.1868 1183.5208 1188.6327 1194.0327 1206.3627 1216.2626">al banco con la sua scheda. Con</tspan></text>
<text fill="#5a5148" xml:space="preserve" transform="matrix(.5 0 0 .5 0 0)" font-size="18" font-family="Type3 (9 0 R)"><tspan y="839" x="981.3281 991.3721 1000.46206 1010.36196 1014.3219 1018.49789 1028.5418 1032.7178 1041.0518 1050.1417 1060.0416 1065.4417 1075.4856 1081.0116 1090.9115 1100.0015 1103.9614 1112.9614">quotidiano pronto.</tspan></text>
<text fill="#6f6859" xml:space="preserve" transform="matrix(.5 0 0 .5 0 0)" font-size="16" font-family="Type3 (10 0 R)"><tspan y="909" x="981.3281 995.0081 1009.40817 1016.4481 1027.6482 1038.6882 1045.7283 1058.6882 1071.4883 1078.5283 1085.5684 1092.6084 1103.7764 1115.1204">HO.RE.CA &#x00b7; B2B</tspan></text>
<path transform="matrix(.5,0,0,.5,0,0)" d="M64 977H1376V978H64Z" fill="#d3c7b6"/>
<text fill="#6b6157" xml:space="preserve" transform="matrix(.5 0 0 .5 0 0)" font-size="18" font-family="Type3 (10 0 R)"><tspan y="1017" x="64 74.58392 81.56787 92.4758 103.81572 114.72365 123.05759 128.45755 138.80748 145.28743 156.62735 166.36528 172.84523 181.84517 191.5831 196.80306 202.56302 213.90294 223.64087 230.62482 240.97475 247.4547 264.55458 271.03453 281.56446 291.91438 300.2483 308.5822 319.11213 329.64204 336.122 345.85993 355.54386 365.22779 376.1357 383.38966 394.72959 405.6375 412.11747 421.8014 432.70933 443.23927 449.71919 459.40315 469.14106 479.67097 485.07093 490.8309 501.36085 510.81077 517.4347 523.9147 535.2546 542.2385 552.3185 562.2184 571.30838 582.2163 588.6963 599.6042 606.0841 617.4241 623.184 631.51797 642.8579 653.7658 664.2957 670.05569 681.3956 687.1556 692.37557 698.1355 703.53549 713.3454 719.8253 730.1753 736.6552 744.98916 750.38919 760.1271 765.52706 776.43496 782.9149 791.64486 801.99478 809.2487 815.00869 821.23666 826.9966 836.68057 846.41848 851.8184">Proposte da validare &#x2014; nessun accordo con cantine, prezzo o disponibilit&#x00e0; &#x00e8; stato verificato</tspan></text>
</g>
</svg>
